<?xml version="1.0" encoding="UTF-8" standalone="no"?>
<!DOCTYPE svg PUBLIC "-//W3C//DTD SVG 1.1//EN"
 "http://www.w3.org/Graphics/SVG/1.1/DTD/svg11.dtd">
<!-- Generated by graphviz version 9.0.0 (20230911.1827)
 -->
<!-- Pages: 1 -->
<svg width="496pt" height="246pt"
 viewBox="0.00 0.00 495.76 245.53" xmlns="http://www.w3.org/2000/svg" xmlns:xlink="http://www.w3.org/1999/xlink">
<g id="graph0" class="graph" transform="scale(1 1) rotate(0) translate(4 241.53)">
<polygon fill="white" stroke="none" points="-4,4 -4,-241.53 491.76,-241.53 491.76,4 -4,4"/>
<!-- 2164973310592 -->
<g id="node1" class="node">
<title>2164973310592</title>
<ellipse fill="none" stroke="black" cx="243.38" cy="-187.14" rx="126.93" ry="50.38"/>
<text text-anchor="middle" x="243.38" y="-189.47" font-family="Times New Roman,serif" font-size="14.00">Score: 0</text>
<text text-anchor="middle" x="243.38" y="-173.72" font-family="Times New Roman,serif" font-size="14.00">Visits: 21335 </text>
<text text-anchor="middle" x="243.38" y="-157.97" font-family="Times New Roman,serif" font-size="14.00">UCB:0.017548682339347258</text>
</g>
<!-- 2165061653408 -->
<g id="node2" class="node">
<title>2165061653408</title>
<ellipse fill="none" stroke="black" cx="117.38" cy="-50.38" rx="117.38" ry="50.38"/>
<text text-anchor="middle" x="117.38" y="-52.71" font-family="Times New Roman,serif" font-size="14.00">Score: 0</text>
<text text-anchor="middle" x="117.38" y="-36.96" font-family="Times New Roman,serif" font-size="14.00">Visits: 1 </text>
<text text-anchor="middle" x="117.38" y="-21.21" font-family="Times New Roman,serif" font-size="14.00">UCB:2.5257843702893847</text>
</g>
<!-- 2164973310592&#45;&gt;2165061653408 -->
<g id="edge1" class="edge">
<title>2164973310592&#45;&gt;2165061653408</title>
<path fill="none" stroke="black" d="M199.66,-139.39C189.58,-128.61 178.77,-117.04 168.41,-105.96"/>
<polygon fill="black" stroke="black" points="171.01,-103.62 161.63,-98.7 165.9,-108.4 171.01,-103.62"/>
</g>
<!-- 2165061619328 -->
<g id="node3" class="node">
<title>2165061619328</title>
<ellipse fill="none" stroke="black" cx="370.38" cy="-50.38" rx="117.38" ry="50.38"/>
<text text-anchor="middle" x="370.38" y="-52.71" font-family="Times New Roman,serif" font-size="14.00">Score: 213330000000</text>
<text text-anchor="middle" x="370.38" y="-36.96" font-family="Times New Roman,serif" font-size="14.00">Visits: 21333 </text>
<text text-anchor="middle" x="370.38" y="-21.21" font-family="Times New Roman,serif" font-size="14.00">UCB:10000000.017292999</text>
</g>
<!-- 2164973310592&#45;&gt;2165061619328 -->
<g id="edge2" class="edge">
<title>2164973310592&#45;&gt;2165061619328</title>
<path fill="none" stroke="black" d="M287.09,-139.77C297.48,-128.74 308.66,-116.88 319.35,-105.54"/>
<polygon fill="black" stroke="black" points="321.67,-108.17 325.99,-98.49 316.58,-103.37 321.67,-108.17"/>
</g>
</g>
</svg>
